<svg width="64" height="64" viewBox="0 0 64 64" fill="none" xmlns="http://www.w3.org/2000/svg">
  <!-- Background circle with gradient -->
  <defs>
    <linearGradient id="iconGradient" x1="0%" y1="0%" x2="100%" y2="100%">
      <stop offset="0%" style="stop-color:#4F46E5;stop-opacity:1" />
      <stop offset="100%" style="stop-color:#1E293B;stop-opacity:1" />
    </linearGradient>
    <filter id="shadow" x="-20%" y="-20%" width="140%" height="140%">
      <feDropShadow dx="0" dy="2" stdDeviation="4" flood-color="#000000" flood-opacity="0.1"/>
    </filter>
  </defs>
  
  <!-- Main circle -->
  <circle cx="32" cy="32" r="30" fill="url(#iconGradient)" filter="url(#shadow)"/>
  
  <!-- FP Letters -->
  <g transform="translate(16, 18)">
    <!-- F Letter -->
    <path d="M0 0 L0 28 L3 28 L3 15 L12 15 L12 12 L3 12 L3 3 L14 3 L14 0 Z" fill="#FFFFFF" stroke="none"/>
    
    <!-- P Letter -->
    <path d="M18 0 L18 28 L21 28 L21 15 L27 15 C30.3 15 33 12.3 33 9 L33 6 C33 2.7 30.3 0 27 0 Z M21 3 L27 3 C28.7 3 30 4.3 30 6 L30 9 C30 10.7 28.7 12 27 12 L21 12 Z" fill="#4F46E5" stroke="none"/>
  </g>
  
  <!-- Accent dot -->
  <circle cx="48" cy="16" r="3" fill="#FFFFFF" opacity="0.8"/>
</svg>