<svg width="200" height="60" viewBox="0 0 200 60" fill="none" xmlns="http://www.w3.org/2000/svg">
  <!-- Background gradient -->
  <defs>
    <linearGradient id="bgGradient" x1="0%" y1="0%" x2="100%" y2="0%">
      <stop offset="0%" style="stop-color:#4F46E5;stop-opacity:1" />
      <stop offset="100%" style="stop-color:#1E293B;stop-opacity:1" />
    </linearGradient>
    <linearGradient id="textGradient" x1="0%" y1="0%" x2="100%" y2="0%">
      <stop offset="0%" style="stop-color:#FFFFFF;stop-opacity:1" />
      <stop offset="100%" style="stop-color:#E2E8F0;stop-opacity:1" />
    </linearGradient>
  </defs>
  
  <!-- Background -->
  <rect width="200" height="60" rx="8" fill="url(#bgGradient)"/>
  
  <!-- FP Icon -->
  <g transform="translate(15, 12)">
    <!-- F Letter -->
    <path d="M0 0 L0 36 L4 36 L4 20 L16 20 L16 16 L4 16 L4 4 L18 4 L18 0 Z" fill="#FFFFFF"/>
    
    <!-- P Letter -->
    <path d="M22 0 L22 36 L26 36 L26 20 L34 20 C38.4 20 42 16.4 42 12 L42 8 C42 3.6 38.4 0 34 0 Z M26 4 L34 4 C36.2 4 38 5.8 38 8 L38 12 C38 14.2 36.2 16 34 16 L26 16 Z" fill="#4F46E5"/>
  </g>
  
  <!-- Fusepoint Text -->
  <text x="70" y="25" font-family="Arial, sans-serif" font-size="14" font-weight="bold" fill="url(#textGradient)">Fusepoint</text>
  <text x="70" y="42" font-family="Arial, sans-serif" font-size="10" fill="#94A3B8">Platform</text>
  
  <!-- Decorative elements -->
  <circle cx="175" cy="15" r="2" fill="#4F46E5" opacity="0.6"/>
  <circle cx="185" cy="20" r="1.5" fill="#FFFFFF" opacity="0.4"/>
  <circle cx="180" cy="45" r="1" fill="#4F46E5" opacity="0.8"/>
</svg>